<svg width="50" height="50" viewBox="0 0 50 50" fill="none" xmlns="http://www.w3.org/2000/svg">
<path d="M8.33342 41.6667C7.18758 41.6667 6.20668 41.2587 5.39071 40.4427C4.57473 39.6268 4.16675 38.6459 4.16675 37.5V12.5C4.16675 11.3542 4.57473 10.3733 5.39071 9.55733C6.20668 8.74136 7.18758 8.33337 8.33342 8.33337H41.6668C42.8126 8.33337 43.7935 8.74136 44.6095 9.55733C45.4254 10.3733 45.8334 11.3542 45.8334 12.5V37.5C45.8334 38.6459 45.4254 39.6268 44.6095 40.4427C43.7935 41.2587 42.8126 41.6667 41.6668 41.6667H8.33342ZM25.0001 27.0834L8.33342 16.6667V37.5H41.6668V16.6667L25.0001 27.0834ZM25.0001 22.9167L41.6668 12.5H8.33342L25.0001 22.9167ZM8.33342 16.6667V12.5V37.5V16.6667Z" fill="#1D1B20"/>
</svg>
