<svg width="50" height="50" viewBox="0 0 50 50" fill="none" xmlns="http://www.w3.org/2000/svg">
<path d="M30.2084 20.8333C28.4792 20.8333 27.0834 19.4375 27.0834 17.7083V7.29163C27.0834 5.56246 28.4792 4.16663 30.2084 4.16663C31.9376 4.16663 33.3334 5.56246 33.3334 7.29163V17.7083C33.3334 19.4375 31.9376 20.8333 30.2084 20.8333Z" stroke="#1E1E1E" stroke-width="4" stroke-linecap="round" stroke-linejoin="round"/>
<path d="M42.7084 20.8333H39.5834V17.7083C39.5834 15.9791 40.9793 14.5833 42.7084 14.5833C44.4376 14.5833 45.8334 15.9791 45.8334 17.7083C45.8334 19.4375 44.4376 20.8333 42.7084 20.8333Z" stroke="#1E1E1E" stroke-width="4" stroke-linecap="round" stroke-linejoin="round"/>
<path d="M19.7917 29.1666C21.5209 29.1666 22.9167 30.5625 22.9167 32.2916V42.7083C22.9167 44.4375 21.5209 45.8333 19.7917 45.8333C18.0626 45.8333 16.6667 44.4375 16.6667 42.7083V32.2916C16.6667 30.5625 18.0626 29.1666 19.7917 29.1666Z" stroke="#1E1E1E" stroke-width="4" stroke-linecap="round" stroke-linejoin="round"/>
<path d="M7.29175 29.1666H10.4167V32.2916C10.4167 34.0208 9.02092 35.4166 7.29175 35.4166C5.56258 35.4166 4.16675 34.0208 4.16675 32.2916C4.16675 30.5625 5.56258 29.1666 7.29175 29.1666Z" stroke="#1E1E1E" stroke-width="4" stroke-linecap="round" stroke-linejoin="round"/>
<path d="M29.1667 30.2083C29.1667 28.4791 30.5626 27.0833 32.2918 27.0833H42.7084C44.4376 27.0833 45.8334 28.4791 45.8334 30.2083C45.8334 31.9375 44.4376 33.3333 42.7084 33.3333H32.2918C30.5626 33.3333 29.1667 31.9375 29.1667 30.2083Z" stroke="#1E1E1E" stroke-width="4" stroke-linecap="round" stroke-linejoin="round"/>
<path d="M32.2918 39.5833H29.1667V42.7083C29.1667 44.4375 30.5626 45.8333 32.2918 45.8333C34.0209 45.8333 35.4168 44.4375 35.4168 42.7083C35.4168 40.9791 34.0209 39.5833 32.2918 39.5833Z" stroke="#1E1E1E" stroke-width="4" stroke-linecap="round" stroke-linejoin="round"/>
<path d="M20.8334 19.7916C20.8334 18.0625 19.4376 16.6666 17.7084 16.6666H7.29175C5.56258 16.6666 4.16675 18.0625 4.16675 19.7916C4.16675 21.5208 5.56258 22.9166 7.29175 22.9166H17.7084C19.4376 22.9166 20.8334 21.5208 20.8334 19.7916Z" stroke="#1E1E1E" stroke-width="4" stroke-linecap="round" stroke-linejoin="round"/>
<path d="M17.7084 10.4166H20.8334V7.29163C20.8334 5.56246 19.4376 4.16663 17.7084 4.16663C15.9792 4.16663 14.5834 5.56246 14.5834 7.29163C14.5834 9.02079 15.9792 10.4166 17.7084 10.4166Z" stroke="#1E1E1E" stroke-width="4" stroke-linecap="round" stroke-linejoin="round"/>
</svg>
